<?xml version="1.0" encoding="UTF-8" standalone="no"?>
<svg
   xmlns:dc="http://purl.org/dc/elements/1.1/"
   xmlns:cc="http://creativecommons.org/ns#"
   xmlns:rdf="http://www.w3.org/1999/02/22-rdf-syntax-ns#"
   xmlns:svg="http://www.w3.org/2000/svg"
   xmlns="http://www.w3.org/2000/svg"
   xmlns:sodipodi="http://sodipodi.sourceforge.net/DTD/sodipodi-0.dtd"
   xmlns:inkscape="http://www.inkscape.org/namespaces/inkscape"
   width="277"
   height="33.000011"
   viewBox="0 0 73.289721 8.7312585"
   version="1.1"
   id="svg8"
   inkscape:version="1.0.2 (e86c870879, 2021-01-15, custom)"
   sodipodi:docname="mfprogramming_logo2.svg">
  <defs
     id="defs2" />
  <sodipodi:namedview
     id="base"
     pagecolor="#ffffff"
     bordercolor="#666666"
     borderopacity="1.0"
     inkscape:pageopacity="0.0"
     inkscape:pageshadow="2"
     inkscape:zoom="3.959798"
     inkscape:cx="140.13487"
     inkscape:cy="64.98566"
     inkscape:document-units="px"
     inkscape:current-layer="layer1"
     inkscape:document-rotation="0"
     showgrid="false"
     inkscape:window-width="1920"
     inkscape:window-height="1017"
     inkscape:window-x="1912"
     inkscape:window-y="-8"
     inkscape:window-maximized="1"
     units="px" />
  <metadata
     id="metadata5">
    <rdf:RDF>
      <cc:Work
         rdf:about="">
        <dc:format>image/svg+xml</dc:format>
        <dc:type
           rdf:resource="http://purl.org/dc/dcmitype/StillImage" />
        <dc:title></dc:title>
      </cc:Work>
    </rdf:RDF>
  </metadata>
  <g
     inkscape:label="Layer 1"
     inkscape:groupmode="layer"
     id="layer1">
    <text
       xml:space="preserve"
       style="font-size:19.7556px;line-height:1.25;font-family:sans-serif;letter-spacing:0.264583px;stroke-width:0.264583"
       x="2.2678573"
       y="52.916668"
       id="text839"><tspan
         sodipodi:role="line"
         id="tspan837"
         x="2.2678573"
         y="52.916668"
         style="stroke-width:0.264583" /></text>
    <g
       aria-label="MFProgramming"
       id="text843"
       style="font-style:normal;font-variant:normal;font-weight:bold;font-stretch:normal;font-size:7.76112px;line-height:1.25;font-family:sans-serif;-inkscape-font-specification:'sans-serif, Bold';font-variant-ligatures:normal;font-variant-caps:normal;font-variant-numeric:normal;font-variant-east-asian:normal;letter-spacing:0.764647px;word-spacing:0px;stroke-width:0.264583">
      <path
         d="M 2.150136,0.60213465 3.6962972,4.9677663 5.2341902,0.60213465 H 6.8630338 V 6.6214147 H 5.6186635 V 4.9760345 L 5.7426871,2.1358935 4.1179776,6.6214147 H 3.2663487 L 1.6457733,2.1400276 1.7697969,4.9760345 V 6.6214147 H 0.52956065 V 0.60213465 Z"
         style="font-style:normal;font-variant:normal;font-weight:bold;font-stretch:normal;font-size:8.46668px;font-family:Roboto;-inkscape-font-specification:'Roboto, Bold';font-variant-ligatures:normal;font-variant-caps:normal;font-variant-numeric:normal;font-variant-east-asian:normal;fill:#102a42;fill-opacity:1"
         id="path863" />
      <path
         d="M 12.332311,4.1616127 H 9.951057 v 2.459802 H 8.7108208 V 0.60213465 H 12.629967 V 1.606726 h -2.67891 v 1.5544295 h 2.381254 z"
         style="font-style:normal;font-variant:normal;font-weight:bold;font-stretch:normal;font-size:8.46668px;font-family:Roboto;-inkscape-font-specification:'Roboto, Bold';font-variant-ligatures:normal;font-variant-caps:normal;font-variant-numeric:normal;font-variant-east-asian:normal;fill:#102a42;fill-opacity:1"
         id="path865" />
      <path
         d="M 15.354188,4.5006106 V 6.6214147 H 14.113951 V 0.60213465 h 2.348181 q 0.677996,0 1.190627,0.24804726 0.516765,0.24804729 0.793751,0.70693469 0.276986,0.4547533 0.276986,1.0376643 0,0.8847019 -0.607716,1.3973329 -0.603581,0.5084968 -1.674319,0.5084968 z m 0,-1.0045913 h 1.107944 q 0.49196,0 0.748276,-0.2315108 0.260449,-0.2315108 0.260449,-0.6614593 0,-0.442351 -0.260449,-0.715203 -0.26045,-0.2728519 -0.719337,-0.2811202 h -1.136883 z"
         style="font-style:normal;font-variant:normal;font-weight:bold;font-stretch:normal;font-size:8.46668px;font-family:Roboto;-inkscape-font-specification:'Roboto, Bold';font-variant-ligatures:normal;font-variant-caps:normal;font-variant-numeric:normal;font-variant-east-asian:normal;fill:#2caeba;fill-opacity:1"
         id="path867" />
      <path
         d="m 22.774769,3.2686426 q -0.243913,-0.033073 -0.429949,-0.033073 -0.677995,0 -0.888836,0.4588874 v 2.9269576 h -1.19476 V 2.1482959 h 1.128615 l 0.03307,0.5333016 q 0.359668,-0.6159841 0.996323,-0.6159841 0.198437,0 0.372071,0.053744 z"
         style="font-style:normal;font-variant:normal;font-weight:bold;font-stretch:normal;font-size:8.46668px;font-family:Roboto;-inkscape-font-specification:'Roboto, Bold';font-variant-ligatures:normal;font-variant-caps:normal;font-variant-numeric:normal;font-variant-east-asian:normal;fill:#2caeba;fill-opacity:1"
         id="path869" />
      <path
         d="m 23.779196,4.3435141 q 0,-0.6655935 0.256316,-1.1864927 0.256315,-0.5208993 0.735873,-0.8061536 0.483692,-0.2852544 1.120347,-0.2852544 0.905372,0 1.475881,0.5539722 0.574643,0.5539722 0.640789,1.50482 l 0.0083,0.305925 q 0,1.0293961 -0.574643,1.6536483 Q 26.867384,6.7040971 25.9,6.7040971 q -0.967384,0 -1.546161,-0.6201182 -0.574643,-0.6201181 -0.574643,-1.6867213 z m 1.194761,0.086816 q 0,0.6366546 0.239779,0.9756525 0.239779,0.3348638 0.686264,0.3348638 0.434083,0 0.677996,-0.3307297 0.243913,-0.3348637 0.243913,-1.0666031 0,-0.6242523 -0.243913,-0.9673843 -0.243913,-0.3431321 -0.686264,-0.3431321 -0.438217,0 -0.677996,0.3431321 -0.239779,0.3389979 -0.239779,1.0542008 z"
         style="font-style:normal;font-variant:normal;font-weight:bold;font-stretch:normal;font-size:8.46668px;font-family:Roboto;-inkscape-font-specification:'Roboto, Bold';font-variant-ligatures:normal;font-variant-caps:normal;font-variant-numeric:normal;font-variant-east-asian:normal;fill:#2caeba;fill-opacity:1"
         id="path871" />
      <path
         d="m 29.343557,4.3517823 q 0,-1.0293961 0.487826,-1.6577825 0.49196,-0.6283864 1.322919,-0.6283864 0.735873,0 1.145151,0.5043628 l 0.04961,-0.4216803 h 1.083139 v 4.3242904 q 0,0.5870452 -0.268718,1.0211279 -0.264583,0.4340827 -0.748276,0.6614593 -0.483692,0.2273767 -1.132749,0.2273767 -0.49196,0 -0.959116,-0.1984378 -0.467155,-0.1943037 -0.706934,-0.5043628 l 0.529167,-0.7276053 q 0.446485,0.5002287 1.08314,0.5002287 0.475424,0 0.740007,-0.2563155 0.264584,-0.2521814 0.264584,-0.7193371 v -0.239779 q -0.413412,0.4671557 -1.087274,0.4671557 -0.806153,0 -1.306382,-0.6283864 -0.496094,-0.6325205 -0.496094,-1.674319 z m 1.194761,0.086817 q 0,0.6077158 0.243913,0.954982 0.243913,0.343132 0.669727,0.343132 0.545704,0 0.781349,-0.409278 v -1.881025 q -0.239779,-0.4092779 -0.77308,-0.4092779 -0.429949,0 -0.677996,0.3514002 -0.243913,0.3514003 -0.243913,1.0500667 z"
         style="font-style:normal;font-variant:normal;font-weight:bold;font-stretch:normal;font-size:8.46668px;font-family:Roboto;-inkscape-font-specification:'Roboto, Bold';font-variant-ligatures:normal;font-variant-caps:normal;font-variant-numeric:normal;font-variant-east-asian:normal;fill:#2caeba;fill-opacity:1"
         id="path873" />
      <path
         d="m 37.62817,3.2686426 q -0.243913,-0.033073 -0.429948,-0.033073 -0.677996,0 -0.888836,0.4588874 V 6.6214147 H 35.114625 V 2.1482959 h 1.128615 l 0.03307,0.5333016 q 0.359668,-0.6159841 0.996323,-0.6159841 0.198438,0 0.372071,0.053744 z"
         style="font-style:normal;font-variant:normal;font-weight:bold;font-stretch:normal;font-size:8.46668px;font-family:Roboto;-inkscape-font-specification:'Roboto, Bold';font-variant-ligatures:normal;font-variant-caps:normal;font-variant-numeric:normal;font-variant-east-asian:normal;fill:#2caeba;fill-opacity:1"
         id="path875" />
      <path
         d="m 41.435532,6.6214147 q -0.08268,-0.1612308 -0.11989,-0.4010098 -0.434083,0.4836922 -1.128615,0.4836922 -0.657325,0 -1.091408,-0.3803391 -0.429948,-0.3803392 -0.429948,-0.9591161 0,-0.7110688 0.525033,-1.0914079 0.529168,-0.3803391 1.525491,-0.3844732 h 0.549838 V 3.6324453 q 0,-0.3100591 -0.161231,-0.4960945 -0.157097,-0.1860355 -0.500229,-0.1860355 -0.30179,0 -0.475424,0.1446942 -0.169498,0.1446943 -0.169498,0.3968757 H 38.76489 q 0,-0.3886074 0.239779,-0.7193371 0.239779,-0.3307297 0.677995,-0.5167651 0.438217,-0.1901696 0.983921,-0.1901696 0.826824,0 1.310517,0.4175463 0.487826,0.413412 0.487826,1.165822 v 1.9389027 q 0.0041,0.6366547 0.177767,0.9632502 v 0.07028 z M 40.447477,5.7904564 q 0.264584,0 0.487826,-0.1157554 0.223243,-0.1198895 0.33073,-0.3183273 V 4.5874272 h -0.446485 q -0.897105,0 -0.954982,0.6201181 l -0.0041,0.07028 q 0,0.2232425 0.157096,0.3679367 0.157097,0.1446943 0.429949,0.1446943 z"
         style="font-style:normal;font-variant:normal;font-weight:bold;font-stretch:normal;font-size:8.46668px;font-family:Roboto;-inkscape-font-specification:'Roboto, Bold';font-variant-ligatures:normal;font-variant-caps:normal;font-variant-numeric:normal;font-variant-east-asian:normal;fill:#2caeba;fill-opacity:1"
         id="path877" />
      <path
         d="m 45.267698,2.1482959 0.03721,0.5002286 q 0.475424,-0.5829111 1.285711,-0.5829111 0.864032,0 1.186493,0.68213 0.47129,-0.68213 1.343589,-0.68213 0.727606,0 1.08314,0.4258145 0.355534,0.4216803 0.355534,1.2733092 V 6.6214147 H 49.360477 V 3.7688713 q 0,-0.3803392 -0.148828,-0.5539722 -0.148828,-0.1777672 -0.525033,-0.1777672 -0.537436,0 -0.744142,0.5126309 l 0.0041,3.0716519 H 46.751847 V 3.7730054 q 0,-0.3886074 -0.152962,-0.5622405 -0.152963,-0.173633 -0.5209,-0.173633 -0.508496,0 -0.735873,0.4216803 V 6.6214147 H 44.147351 V 2.1482959 Z"
         style="font-style:normal;font-variant:normal;font-weight:bold;font-stretch:normal;font-size:8.46668px;font-family:Roboto;-inkscape-font-specification:'Roboto, Bold';font-variant-ligatures:normal;font-variant-caps:normal;font-variant-numeric:normal;font-variant-east-asian:normal;fill:#2caeba;fill-opacity:1"
         id="path879" />
      <path
         d="m 53.362138,2.1482959 0.03721,0.5002286 q 0.475424,-0.5829111 1.285712,-0.5829111 0.864031,0 1.186493,0.68213 0.471289,-0.68213 1.343589,-0.68213 0.727605,0 1.08314,0.4258145 0.355534,0.4216803 0.355534,1.2733092 V 6.6214147 H 57.454918 V 3.7688713 q 0,-0.3803392 -0.148828,-0.5539722 -0.148829,-0.1777672 -0.525034,-0.1777672 -0.537436,0 -0.744142,0.5126309 l 0.0041,3.0716519 H 54.846288 V 3.7730054 q 0,-0.3886074 -0.152963,-0.5622405 -0.152962,-0.173633 -0.520899,-0.173633 -0.508497,0 -0.735874,0.4216803 V 6.6214147 H 52.241791 V 2.1482959 Z"
         style="font-style:normal;font-variant:normal;font-weight:bold;font-stretch:normal;font-size:8.46668px;font-family:Roboto;-inkscape-font-specification:'Roboto, Bold';font-variant-ligatures:normal;font-variant-caps:normal;font-variant-numeric:normal;font-variant-east-asian:normal;fill:#2caeba;fill-opacity:1"
         id="path881" />
      <path
         d="M 61.597143,6.6214147 H 60.398248 V 2.1482959 h 1.198895 z M 60.327967,0.99074202 q 0,-0.26871786 0.177768,-0.44235094 0.181901,-0.17363308 0.49196,-0.17363308 0.305925,0 0.487826,0.17363308 0.181902,0.17363308 0.181902,0.44235094 0,0.27285198 -0.186036,0.44648508 -0.181901,0.173633 -0.483692,0.173633 -0.301791,0 -0.487826,-0.173633 Q 60.327967,1.263594 60.327967,0.99074202 Z"
         style="font-style:normal;font-variant:normal;font-weight:bold;font-stretch:normal;font-size:8.46668px;font-family:Roboto;-inkscape-font-specification:'Roboto, Bold';font-variant-ligatures:normal;font-variant-caps:normal;font-variant-numeric:normal;font-variant-east-asian:normal;fill:#2caeba;fill-opacity:1"
         id="path883" />
      <path
         d="m 64.445388,2.1482959 0.03721,0.5167651 q 0.479558,-0.5994476 1.285711,-0.5994476 0.711069,0 1.058335,0.4175463 0.347266,0.4175462 0.355535,1.2485045 V 6.6214147 H 65.987415 V 3.760603 q 0,-0.3803391 -0.165365,-0.5498381 -0.165365,-0.173633 -0.549838,-0.173633 -0.504363,0 -0.756544,0.4299485 V 6.6214147 H 63.320907 V 2.1482959 Z"
         style="font-style:normal;font-variant:normal;font-weight:bold;font-stretch:normal;font-size:8.46668px;font-family:Roboto;-inkscape-font-specification:'Roboto, Bold';font-variant-ligatures:normal;font-variant-caps:normal;font-variant-numeric:normal;font-variant-east-asian:normal;fill:#2caeba;fill-opacity:1"
         id="path885" />
      <path
         d="m 68.678563,4.3517823 q 0,-1.0293961 0.487827,-1.6577825 0.49196,-0.6283864 1.322918,-0.6283864 0.735874,0 1.145152,0.5043628 l 0.04961,-0.4216803 h 1.08314 v 4.3242904 q 0,0.5870452 -0.268718,1.0211279 -0.264584,0.4340827 -0.748276,0.6614593 -0.483692,0.2273767 -1.132749,0.2273767 -0.49196,0 -0.959116,-0.1984378 -0.467156,-0.1943037 -0.706935,-0.5043628 l 0.529168,-0.7276053 q 0.446485,0.5002287 1.083139,0.5002287 0.475424,0 0.740008,-0.2563155 0.264584,-0.2521814 0.264584,-0.7193371 v -0.239779 q -0.413412,0.4671557 -1.087274,0.4671557 -0.806154,0 -1.306382,-0.6283864 -0.496095,-0.6325205 -0.496095,-1.674319 z m 1.194761,0.086817 q 0,0.6077158 0.243913,0.954982 0.243914,0.343132 0.669728,0.343132 0.545704,0 0.781349,-0.409278 v -1.881025 q -0.239779,-0.4092779 -0.773081,-0.4092779 -0.429948,0 -0.677996,0.3514002 -0.243913,0.3514003 -0.243913,1.0500667 z"
         style="font-style:normal;font-variant:normal;font-weight:bold;font-stretch:normal;font-size:8.46668px;font-family:Roboto;-inkscape-font-specification:'Roboto, Bold';font-variant-ligatures:normal;font-variant-caps:normal;font-variant-numeric:normal;font-variant-east-asian:normal;fill:#2caeba;fill-opacity:1"
         id="path887" />
    </g>
  </g>
</svg>
